<svg xmlns="http://www.w3.org/2000/svg" width="640" height="370" viewBox="0 0 640 370" role="img"><title>ユニノット 手順1</title><desc>青い一本の糸。本線Sは長い側、端糸Tは短い側。交差で白縁のある連続線が手前。橙の矢印は動かす方向。</desc><defs><marker id="arrow" markerWidth="10" markerHeight="10" refX="8" refY="4" orient="auto"><path d="M0 0L8 4L0 8" fill="none" stroke="#c2562b" stroke-width="1.5"/></marker></defs><rect width="640" height="370" fill="#fff"/><style>text{font:18px system-ui,sans-serif;fill:#173f49} .small{font-size:15px}</style><circle cx="67" cy="162" r="24" fill="#f2f5f4" stroke="#617c80" stroke-width="6"/><path d="M42 162H18" stroke="#617c80" stroke-width="9"/><text x="25" y="213">環</text><path d="M598 140H89 Q67 140 67 162 Q67 184 89 184 H466 Q541 184 525 244 Q513 289 374 286 H244 Q174 286 174 217" fill="none" stroke="#166b88" stroke-width="5" stroke-linecap="round" stroke-linejoin="round"/><path d="M174 217 Q147 151 171 88" fill="none" stroke="#fff" stroke-width="10" stroke-linecap="butt" stroke-linejoin="round"/><path d="M174 217 Q147 151 171 88" fill="none" stroke="#166b88" stroke-width="5" stroke-linecap="round" stroke-linejoin="round"/><text x="175" y="77">T 端糸</text><path d="M130 250Q108 182 132 116" fill="none" stroke="#c2562b" stroke-width="3" marker-end="url(#arrow)"/><text x="268" y="270">作業輪</text><text x="511" y="118">S 本線</text><text x="26" y="342">S 本線  /  T 端糸　　白縁の連続線＝手前</text></svg>